<svg id="Capa_1" data-name="Capa 1" xmlns="http://www.w3.org/2000/svg" viewBox="0 0 94.98 131.97"><defs><style>.cls-1{fill:#272525;}</style></defs><title>Real Under</title><path d="M64.62,83.81H26a.92.92,0,0,1-.48-.14,38.48,38.48,0,1,1,58.27-33,38.23,38.23,0,0,1-18.68,33A.92.92,0,0,1,64.62,83.81ZM26.26,81.93H64.35A36.61,36.61,0,1,0,8.7,50.66,36.36,36.36,0,0,0,26.26,81.93Z"/><path d="M59.77,116.34H30.84a.94.94,0,0,1-.94-.93V82.87a.94.94,0,0,1,.94-.94H59.77a.94.94,0,0,1,.94.94v32.54A.94.94,0,0,1,59.77,116.34Zm-28-1.87H58.84V83.81H31.78Z"/><path d="M72.6,83.81H18a.94.94,0,0,1,0-1.88H72.6a.94.94,0,0,1,0,1.88Z"/><path d="M65.36,95.67H25.24a.94.94,0,0,1,0-1.87H65.36a.94.94,0,1,1,0,1.87Z"/><path d="M65.36,104.8H25.24a.94.94,0,0,1,0-1.87H65.36a.94.94,0,1,1,0,1.87Z"/><path d="M45.3,126.25a8.87,8.87,0,0,1-8.85-8.87,8.58,8.58,0,0,1,.28-2.21.94.94,0,0,1,.91-.7H53a.94.94,0,0,1,.91.7,9,9,0,0,1,.28,2.21A8.88,8.88,0,0,1,45.3,126.25Zm-6.9-9.91a7.4,7.4,0,0,0-.08,1,7,7,0,1,0,14,0,7.17,7.17,0,0,0-.07-1Z"/><g id="_Grupo_" data-name="&lt;Grupo&gt;"><g id="_Grupo_2" data-name="&lt;Grupo&gt;"><path class="cls-1" d="M74,7.68a1.23,1.23,0,1,0-2.29.89l3.55,9.17a.7.7,0,0,0,.06.09l-2.62,2.62L69.48,11.9a1.23,1.23,0,0,0-2.3.86l3.55,9.46a1.27,1.27,0,0,0,.07.12l-6.2,6.2a29.3,29.3,0,1,0,1.74,1.74l5.51-5.51a1.22,1.22,0,0,0,.86.51l11.54,1.27h.13a1.22,1.22,0,0,0,1.22-1.09,1.24,1.24,0,0,0-1.09-1.36L73.7,22.92l3.17-3.17a.76.76,0,0,0,.16,0l11.53,1.27h.13A1.23,1.23,0,0,0,89.91,20a1.22,1.22,0,0,0-1.08-1.35l-9.75-1.07L85,11.61a1.23,1.23,0,0,0-1.74-1.73L77.19,16Zm-2.37,42.4a26.87,26.87,0,1,1-8.76-19.8l-5.79,5.79a18.8,18.8,0,1,0,1.73,1.74L64.6,32A26.67,26.67,0,0,1,71.62,50.08ZM43.93,51a1.22,1.22,0,0,0,1.73,0l3.79-3.78a5.44,5.44,0,0,1,.84,2.91,5.5,5.5,0,1,1-2.58-4.65l-3.78,3.78A1.23,1.23,0,0,0,43.93,51Zm5.54-7.28a7.94,7.94,0,1,0,1.74,1.73l5.85-5.85a16.1,16.1,0,1,1-1.73-1.74Z"/></g></g></svg>