<svg id="Capa_1" data-name="Capa 1" xmlns="http://www.w3.org/2000/svg" viewBox="0 0 107.68 102.54"><title>Constant cha</title><path d="M53.94,98.54a46.73,46.73,0,1,1,46.73-46.73A46.78,46.78,0,0,1,53.94,98.54Zm0-91.45A44.73,44.73,0,1,0,98.67,51.81,44.77,44.77,0,0,0,53.94,7.09Z"/><path d="M53.94,58.78a7,7,0,1,1,7-7A7,7,0,0,1,53.94,58.78Zm0-11.93a5,5,0,1,0,5,5A5,5,0,0,0,53.94,46.85Z"/><path d="M58.16,48.59a1,1,0,0,1-.71-1.7L77.13,27.21a1,1,0,1,1,1.41,1.41L58.87,48.3A1,1,0,0,1,58.16,48.59Z"/><path d="M23.9,53.55H16a1,1,0,0,1,0-2h8a1,1,0,0,1,0,2Z"/><path d="M19,67.26a1,1,0,0,1-.38-1.92l7.35-3a1,1,0,0,1,1.3.54,1,1,0,0,1-.54,1.31l-7.34,3A1.07,1.07,0,0,1,19,67.26Z"/><path d="M88.83,67.27a1.08,1.08,0,0,1-.38-.08l-7.34-3a1,1,0,0,1-.54-1.31,1,1,0,0,1,1.3-.54l7.35,3a1,1,0,0,1-.39,1.92Z"/><path d="M91.71,52.81H83.76a1,1,0,0,1,0-2h7.95a1,1,0,1,1,0,2Z"/><path d="M81.49,41.4a1,1,0,0,1-.38-1.92l7.35-3a1,1,0,1,1,.76,1.84l-7.35,3A.84.84,0,0,1,81.49,41.4Z"/><path d="M65.35,25.26a1.08,1.08,0,0,1-.38-.08,1,1,0,0,1-.54-1.3l3-7.34a1,1,0,0,1,1.84.76l-3,7.34A1,1,0,0,1,65.35,25.26Z"/><path d="M53.72,23.73a1,1,0,0,1-1-1v-8a1,1,0,0,1,2,0v8A1,1,0,0,1,53.72,23.73Z"/><path d="M42.53,25.26a1,1,0,0,1-.92-.62l-3-7.34a1,1,0,1,1,1.84-.77l3,7.35a1,1,0,0,1-.54,1.3A1,1,0,0,1,42.53,25.26Z"/><path d="M32.86,31.72a1,1,0,0,1-.71-.29l-5.62-5.62a1,1,0,1,1,1.41-1.41L33.56,30a1,1,0,0,1,0,1.41A1,1,0,0,1,32.86,31.72Z"/><path d="M26.39,41.4a.84.84,0,0,1-.38-.08l-7.35-3A1,1,0,0,1,18.13,37a1,1,0,0,1,1.3-.53l7.34,3a1,1,0,0,1-.38,1.92Z"/><path d="M71.84,82.63H36.05a1,1,0,0,1-1-1V69.71a1,1,0,0,1,1-1H71.84a1,1,0,0,1,1,1V81.63A1,1,0,0,1,71.84,82.63Zm-34.79-2H70.84V70.7H37.05Z"/></svg>