<svg id="Capa_1" data-name="Capa 1" xmlns="http://www.w3.org/2000/svg" viewBox="0 0 107.04 99.42"><title>communication</title><path d="M16,77.42a.76.76,0,0,1-.21,0,.79.79,0,0,1-.58-.67l-2-16.7H10.79A6.19,6.19,0,0,1,4.6,53.84V9.64a6.2,6.2,0,0,1,6.19-6.19H73.32A6.19,6.19,0,0,1,79.5,9.64v44.2A6.18,6.18,0,0,1,73.32,60H29.59l-13,17.08A.77.77,0,0,1,16,77.42ZM10.79,5a4.6,4.6,0,0,0-4.6,4.6v44.2a4.6,4.6,0,0,0,4.6,4.59h3.08a.8.8,0,0,1,.79.7l1.88,15.45,12-15.83a.79.79,0,0,1,.63-.32H73.32a4.6,4.6,0,0,0,4.59-4.59V9.64A4.6,4.6,0,0,0,73.32,5Z"/><path d="M89.87,92.24a.79.79,0,0,1-.63-.31l-13-17.08H32.55a6.18,6.18,0,0,1-6.18-6.18V61.91a.77.77,0,0,1,.16-.48l2-2.68a.79.79,0,0,1,.63-.32H73.32a4.6,4.6,0,0,0,4.59-4.59V19.07a.79.79,0,0,1,.79-.79H95.08a6.18,6.18,0,0,1,6.18,6.18V68.67a6.18,6.18,0,0,1-6.18,6.18H92.7l-2,16.69a.79.79,0,0,1-.58.67A.76.76,0,0,1,89.87,92.24ZM28,62.18v6.49a4.6,4.6,0,0,0,4.59,4.59H76.67a.79.79,0,0,1,.63.32l12,15.83L91.2,74a.8.8,0,0,1,.79-.7h3.09a4.6,4.6,0,0,0,4.59-4.59V24.46a4.6,4.6,0,0,0-4.59-4.59H79.5v34A6.18,6.18,0,0,1,73.32,60H29.6Z"/><path d="M69.34,21.28H14.76a.79.79,0,1,1,0-1.58H69.34a.79.79,0,1,1,0,1.58Z"/><path d="M69.34,31.26H14.76a.79.79,0,0,1-.8-.79.8.8,0,0,1,.8-.8H69.34a.79.79,0,0,1,.79.8A.79.79,0,0,1,69.34,31.26Z"/><path d="M69.34,41.23H14.76a.79.79,0,0,1-.8-.79.8.8,0,0,1,.8-.8H69.34a.79.79,0,0,1,.79.8A.79.79,0,0,1,69.34,41.23Z"/></svg>