<svg id="Capa_1" data-name="Capa 1" xmlns="http://www.w3.org/2000/svg" viewBox="0 0 124.18 122.45"><title>presicion</title><path d="M62.3,107.41A46.67,46.67,0,1,1,109,60.74,46.71,46.71,0,0,1,62.3,107.41ZM62.3,16a44.77,44.77,0,1,0,44.77,44.76A44.81,44.81,0,0,0,62.3,16Z"/><path d="M62.3,93.18A32.44,32.44,0,1,1,94.73,60.74,32.46,32.46,0,0,1,62.3,93.18Zm0-63A30.53,30.53,0,1,0,92.83,60.74,30.56,30.56,0,0,0,62.3,30.21Z"/><path d="M62.3,73.75a13,13,0,1,1,13-13A13,13,0,0,1,62.3,73.75Zm0-24.11a11.1,11.1,0,1,0,11.1,11.1A11.11,11.11,0,0,0,62.3,49.64Z"/><path d="M62.31,30.21a.94.94,0,0,1-1-.95V4.8a.95.95,0,1,1,1.9,0V29.26A.94.94,0,0,1,62.31,30.21Z"/><path d="M119.09,61.7H93.78a1,1,0,0,1,0-1.91h25.31a1,1,0,0,1,0,1.91Z"/><path d="M62.3,118.91a1,1,0,0,1-.95-1V92.08a1,1,0,0,1,1.91,0V118A1,1,0,0,1,62.3,118.91Z"/><path d="M30.83,61.7H5.09a1,1,0,0,1,0-1.91H30.83a1,1,0,0,1,0,1.91Z"/><path d="M62.3,66.3a5.56,5.56,0,1,1,5.57-5.56A5.56,5.56,0,0,1,62.3,66.3Zm0-9.21A3.65,3.65,0,1,0,66,60.74,3.65,3.65,0,0,0,62.3,57.09Z"/></svg>