<svg id="Capa_1" data-name="Capa 1" xmlns="http://www.w3.org/2000/svg" viewBox="0 0 169.12 140.21"><title>servicio 4</title><path d="M154,130.36H15.09a1.16,1.16,0,0,1-1.16-1.17V13.37a1.16,1.16,0,0,1,1.16-1.16H154a1.16,1.16,0,0,1,1.16,1.16V129.19A1.16,1.16,0,0,1,154,130.36ZM16.25,128H152.87V14.53H16.25Z"/><path d="M154,130.36H92.46a1.16,1.16,0,0,1-1-.59l-.47-.83a1.16,1.16,0,0,1,.29-1.48l8.93-7.11a32.41,32.41,0,0,1-1.39-5.21l-11.3-1.69a1.17,1.17,0,0,1-1-1.15v-5.46a1.15,1.15,0,0,1,1-1.15L98.82,104a33.19,33.19,0,0,1,1.39-5.21l-8.93-7.12A1.17,1.17,0,0,1,91,90.18l3.16-5.46a1.17,1.17,0,0,1,1.43-.5l10.63,4.18A35.06,35.06,0,0,1,110,84.6L105.83,74a1.16,1.16,0,0,1,.5-1.43l5.47-3.15a1.16,1.16,0,0,1,1.49.28l7.11,9a32,32,0,0,1,5.2-1.4l1.7-11.3a1.17,1.17,0,0,1,1.15-1h6.3a1.15,1.15,0,0,1,1.14,1l1.7,11.3a32.43,32.43,0,0,1,5.21,1.4l7.11-9a1.16,1.16,0,0,1,1.49-.28l3.21,1.85a1.16,1.16,0,0,1,.58,1v7a1.26,1.26,0,0,1-.08.43l-1.94,4.9c.62.53,1.17,1,1.67,1.52a1.18,1.18,0,0,1,.35.83v42.24A1.16,1.16,0,0,1,154,130.36ZM94.28,128h58.59V87.45c-.54-.51-1.14-1-1.83-1.6a1.17,1.17,0,0,1-.34-1.32l2.17-5.48V72.91l-1.76-1-7,8.82a1.17,1.17,0,0,1-1.33.36,31.18,31.18,0,0,0-6.38-1.72,1.17,1.17,0,0,1-1-1l-1.67-11.14h-4.3l-1.68,11.14a1.17,1.17,0,0,1-1,1,31,31,0,0,0-6.36,1.72,1.17,1.17,0,0,1-1.33-.36l-7-8.82L108.36,74l4.13,10.49a1.17,1.17,0,0,1-.35,1.32,32.21,32.21,0,0,0-4.67,4.67,1.16,1.16,0,0,1-1.33.35L95.66,86.75,93.5,90.48l8.81,7a1.17,1.17,0,0,1,.36,1.32,31.72,31.72,0,0,0-1.7,6.38,1.16,1.16,0,0,1-1,1l-11.14,1.67v3.46L100,113a1.15,1.15,0,0,1,1,1,31.24,31.24,0,0,0,1.7,6.38,1.17,1.17,0,0,1-.36,1.32Z"/><path d="M154,38H15.09a1.17,1.17,0,0,1,0-2.33H154A1.17,1.17,0,0,1,154,38Z"/><path d="M29.12,30a5.11,5.11,0,1,1,5.12-5.1A5.11,5.11,0,0,1,29.12,30Zm0-7.9a2.79,2.79,0,1,0,2.8,2.8A2.8,2.8,0,0,0,29.12,22.06Z"/><path d="M46.26,30a5.11,5.11,0,1,1,5.12-5.1A5.11,5.11,0,0,1,46.26,30Zm0-7.9a2.79,2.79,0,1,0,2.79,2.8A2.8,2.8,0,0,0,46.26,22.06Z"/><path d="M154,26H76.84a1.16,1.16,0,1,1,0-2.32H154A1.16,1.16,0,0,1,154,26Z"/><path d="M137.32,56.28H31.8a1.16,1.16,0,0,1-1.16-1.16V47.88a1.16,1.16,0,0,1,1.16-1.16H137.32a1.16,1.16,0,0,1,1.16,1.16v7.24A1.16,1.16,0,0,1,137.32,56.28ZM33,54h103.2V49H33Z"/><path d="M92.35,71.43h-61a1.16,1.16,0,1,1,0-2.32h61a1.16,1.16,0,1,1,0,2.32Z"/><path d="M53.55,78.73H31.36a1.16,1.16,0,1,1,0-2.32H53.55a1.16,1.16,0,1,1,0,2.32Z"/><path d="M80.24,86H31.36a1.16,1.16,0,1,1,0-2.32H80.24a1.16,1.16,0,1,1,0,2.32Z"/><path d="M67.15,93.34H31.36a1.16,1.16,0,1,1,0-2.32H67.15a1.16,1.16,0,0,1,0,2.32Z"/><path d="M80,100.63H31.36a1.16,1.16,0,1,1,0-2.32H80a1.16,1.16,0,1,1,0,2.32Z"/><path d="M66,107.94H31.36a1.16,1.16,0,1,1,0-2.32H66a1.16,1.16,0,1,1,0,2.32Z"/></svg>