<svg id="Capa_1" data-name="Capa 1" xmlns="http://www.w3.org/2000/svg" viewBox="0 0 108.53 158.14"><title>servicio 2</title><path d="M78.16,97.9H30.33a1.16,1.16,0,0,1-.6-.17,47.66,47.66,0,1,1,72.16-40.88A47.34,47.34,0,0,1,78.76,97.73,1.16,1.16,0,0,1,78.16,97.9ZM30.65,95.58H77.83A45.34,45.34,0,1,0,8.91,56.85,45,45,0,0,0,30.65,95.58Z"/><path d="M72.16,138.19H36.33A1.16,1.16,0,0,1,35.17,137V96.74a1.16,1.16,0,0,1,1.16-1.16H72.16a1.16,1.16,0,0,1,1.16,1.16V137A1.16,1.16,0,0,1,72.16,138.19Zm-34.67-2.32H71v-38H37.49Z"/><path d="M88.05,97.9H20.44a1.16,1.16,0,0,1,0-2.32H88.05a1.16,1.16,0,1,1,0,2.32Z"/><path d="M79.08,112.59H29.4a1.16,1.16,0,0,1,0-2.32H79.08a1.16,1.16,0,0,1,0,2.32Z"/><path d="M79.08,123.9H29.4a1.16,1.16,0,1,1,0-2.32H79.08a1.16,1.16,0,1,1,0,2.32Z"/><path d="M54.24,150.46a11,11,0,0,1-10.62-13.72,1.18,1.18,0,0,1,1.13-.87h19a1.16,1.16,0,0,1,1.12.87,10.83,10.83,0,0,1,.35,2.74A11,11,0,0,1,54.24,150.46Zm-8.55-12.27a9.34,9.34,0,0,0-.1,1.29,8.65,8.65,0,1,0,17.29,0,9.11,9.11,0,0,0-.09-1.29Z"/><path d="M54.4,41.7a6,6,0,1,1,6-6A6,6,0,0,1,54.4,41.7Zm0-10.19a4.2,4.2,0,1,0,4.2,4.2A4.21,4.21,0,0,0,54.4,31.51Z"/><rect x="53.39" y="40.81" width="1.79" height="56.14"/><path d="M39.36,58.08a6,6,0,1,1,6-6A6,6,0,0,1,39.36,58.08Zm0-10.19a4.21,4.21,0,1,0,4.21,4.2A4.21,4.21,0,0,0,39.36,47.89Z"/><path d="M27.34,74.53a6,6,0,1,1,6-6A6,6,0,0,1,27.34,74.53Zm0-10.2a4.21,4.21,0,1,0,4.2,4.21A4.22,4.22,0,0,0,27.34,64.33Z"/><polygon points="49.75 95.61 47.97 95.61 47.97 79.26 38.47 69.76 38.47 57.19 40.26 57.19 40.26 69.03 49.75 78.52 49.75 95.61"/><polygon points="41.08 97.96 26.44 83.33 26.44 73.63 28.23 73.63 28.23 82.59 42.34 96.7 41.08 97.96"/><path d="M69.23,58.08a6,6,0,1,1,6-6A6,6,0,0,1,69.23,58.08Zm0-10.19a4.21,4.21,0,1,0,4.2,4.2A4.21,4.21,0,0,0,69.23,47.89Z"/><path d="M81.26,74.53a6,6,0,1,1,6-6A6,6,0,0,1,81.26,74.53Zm0-10.2a4.21,4.21,0,1,0,4.2,4.21A4.21,4.21,0,0,0,81.26,64.33Z"/><polygon points="60.63 95.61 58.84 95.61 58.84 78.52 68.34 69.03 68.34 57.19 70.12 57.19 70.12 69.76 60.63 79.26 60.63 95.61"/><polygon points="67.51 97.96 66.25 96.7 80.37 82.59 80.37 73.63 82.15 73.63 82.15 83.33 67.51 97.96"/></svg>