<svg id="Capa_1" data-name="Capa 1" xmlns="http://www.w3.org/2000/svg" viewBox="0 0 126.67 157.93"><title>servicio 3</title><path d="M53.43,96.62A43.08,43.08,0,0,1,16.2,75.14,43,43,0,0,1,53.36,10.72a43,43,0,1,1,.07,85.9ZM53.36,13A40.63,40.63,0,1,0,88.58,33.35,40.59,40.59,0,0,0,53.36,13Z"/><path d="M78.87,108.17a1.15,1.15,0,0,1-1-.58l-8.67-15a1.11,1.11,0,0,1-.1-.94,1.12,1.12,0,0,1,.63-.7,34.12,34.12,0,0,0,3.47-1.75,35.72,35.72,0,0,0,3.24-2.13,1.19,1.19,0,0,1,.93-.21,1.17,1.17,0,0,1,.77.55l8.67,15a1.14,1.14,0,0,1-.43,1.58l-6.93,4A1.1,1.1,0,0,1,78.87,108.17Zm-7-15.65,7.46,12.9,4.92-2.84L76.77,89.67c-.74.51-1.54,1-2.4,1.52S72.7,92.1,71.84,92.52Z"/><path d="M96.18,152a1,1,0,0,1-.3,0,1.14,1.14,0,0,1-.71-.54L71.87,111a1.18,1.18,0,0,1,.43-1.59l18.91-10.9A1.17,1.17,0,0,1,92.8,99l23.29,40.34a1.16,1.16,0,0,1-.42,1.58L96.76,151.82A1.19,1.19,0,0,1,96.18,152ZM74.47,110.88,96.6,149.23l16.9-9.77L91.37,101.14Z"/><path d="M98.73,139.29a5.9,5.9,0,0,1-3-11,6,6,0,0,1,2.94-.78,5.89,5.89,0,0,1,3,11A5.85,5.85,0,0,1,98.73,139.29Zm0-9.47a3.57,3.57,0,0,0-3.08,5.37,3.66,3.66,0,0,0,4.87,1.29,3.57,3.57,0,0,0-1.79-6.66Z"/><path d="M53.4,69A30.26,30.26,0,0,1,27.52,54.27a1.16,1.16,0,0,1,0-1.19,30.08,30.08,0,0,1,51.74,0,1.16,1.16,0,0,1,0,1.19A30.24,30.24,0,0,1,53.4,69ZM29.88,53.67a27.78,27.78,0,0,0,47,0,27.76,27.76,0,0,0-47,0Z"/><path d="M53.4,67.07a13.41,13.41,0,1,1,13.4-13.4A13.42,13.42,0,0,1,53.4,67.07Zm0-24.49A11.09,11.09,0,1,0,64.48,53.67,11.1,11.1,0,0,0,53.4,42.58Z"/><path d="M53.4,57.34a3.68,3.68,0,1,1,3.67-3.67A3.67,3.67,0,0,1,53.4,57.34Zm0-5a1.36,1.36,0,1,0,1.35,1.36A1.36,1.36,0,0,0,53.4,52.31Z"/><path d="M59.88,52.29a7.17,7.17,0,0,1-5.73-11.46,1.16,1.16,0,0,1,1.09-.45,13.52,13.52,0,0,1,10.45,7.94,1.15,1.15,0,0,1-.14,1.17A7.09,7.09,0,0,1,59.88,52.29Zm-4.25-9.48A4.74,4.74,0,0,0,55,45.13,4.84,4.84,0,0,0,59.88,50a4.73,4.73,0,0,0,3.37-1.38A11.19,11.19,0,0,0,55.63,42.81Z"/></svg>