<svg id="Capa_1" data-name="Capa 1" xmlns="http://www.w3.org/2000/svg" viewBox="0 0 76.42 74"><title>icon team 1</title><path d="M57,31.51A14.36,14.36,0,1,1,71.37,17.15,14.37,14.37,0,0,1,57,31.51ZM57,4.29A12.86,12.86,0,1,0,69.87,17.15,12.88,12.88,0,0,0,57,4.29Z"/><path d="M53.51,70.52A9.45,9.45,0,1,1,61.9,56.76h0a9.44,9.44,0,0,1-8.39,13.76Zm0-17.4a8,8,0,0,0-7.56,5.51,8,8,0,1,0,7.56-5.51Z"/><path d="M14.87,58.06a11.08,11.08,0,0,1-3.4-.54A11,11,0,0,1,9.82,37.2,11.05,11.05,0,0,1,24.68,42h0a11,11,0,0,1-9.81,16.08Zm0-20.58a9.54,9.54,0,1,0,8.5,5.19A9.5,9.5,0,0,0,14.84,37.48Z"/><rect x="20" y="31.77" width="29.23" height="1.5" transform="translate(-12.09 23.87) rotate(-32.72)"/><rect x="34.31" y="44.95" width="1.5" height="21.69" transform="translate(-29.67 68.11) rotate(-68.63)"/></svg>