<svg id="Capa_1" data-name="Capa 1" xmlns="http://www.w3.org/2000/svg" viewBox="0 0 160.99 135.14"><defs><style>.cls-1{fill:#fff;}</style></defs><title>servicio 1 blanco</title><path class="cls-1" d="M127.78,119.43a26,26,0,0,1-25.36-20.62,1.16,1.16,0,0,1,2.28-.47A23.57,23.57,0,1,0,127.78,70a23.42,23.42,0,0,0-5.12.56,1.16,1.16,0,0,1-.51-2.27,26.18,26.18,0,0,1,5.63-.61,25.89,25.89,0,1,1,0,51.78Z"/><path class="cls-1" d="M127.78,119.43c-5.6,0-10.26-8.54-11.33-20.76a1.16,1.16,0,0,1,2.32-.2c.92,10.63,4.8,18.64,9,18.64,4.46,0,9.23-9.47,9.23-23.58S132.24,70,127.78,70c-1.89,0-3.45,1.67-4.42,3.06a1.16,1.16,0,0,1-1.91-1.32c1.85-2.66,4-4.06,6.33-4.06,6.48,0,11.55,11.37,11.55,25.88S134.26,119.43,127.78,119.43Z"/><path class="cls-1" d="M122.41,99.73H13.58a1.15,1.15,0,0,1-1.16-1.16V16.68a1.16,1.16,0,0,1,1.16-1.16H122.41a1.16,1.16,0,0,1,1.16,1.16V98.57A1.15,1.15,0,0,1,122.41,99.73ZM14.74,97.41H121.25V17.84H14.74Z"/><path class="cls-1" d="M51.34,76.64H45.6a1.16,1.16,0,0,1-1.16-1.16V55.62a1.16,1.16,0,0,1,1.16-1.16h5.74a1.16,1.16,0,0,1,1.16,1.16V75.48A1.16,1.16,0,0,1,51.34,76.64Zm-4.58-2.32h3.42V56.78H46.76Z"/><path class="cls-1" d="M61.16,76.64H55.42a1.16,1.16,0,0,1-1.16-1.16V51.62a1.16,1.16,0,0,1,1.16-1.16h5.74a1.16,1.16,0,0,1,1.16,1.16V75.48A1.16,1.16,0,0,1,61.16,76.64Zm-4.58-2.32H60V52.78H56.58Z"/><path class="cls-1" d="M71,76.64H65.23a1.16,1.16,0,0,1-1.16-1.16V57.28a1.16,1.16,0,0,1,1.16-1.16H71a1.16,1.16,0,0,1,1.16,1.16v18.2A1.16,1.16,0,0,1,71,76.64Zm-4.59-2.32h3.42V58.44H66.39Z"/><path class="cls-1" d="M80.79,76.64H75.06a1.16,1.16,0,0,1-1.17-1.16V67.56a1.16,1.16,0,0,1,1.17-1.16h5.73A1.16,1.16,0,0,1,82,67.56v7.92A1.16,1.16,0,0,1,80.79,76.64Zm-4.57-2.32h3.41v-5.6H76.22Z"/><path class="cls-1" d="M90.61,76.64H84.87a1.16,1.16,0,0,1-1.16-1.16v-18a1.16,1.16,0,0,1,1.16-1.16h5.74a1.16,1.16,0,0,1,1.16,1.16v18A1.16,1.16,0,0,1,90.61,76.64ZM86,74.32h3.42V58.6H86Z"/><path class="cls-1" d="M99,81.7H36.89a1.16,1.16,0,0,1,0-2.32H99a1.16,1.16,0,1,1,0,2.32Z"/><path class="cls-1" d="M122.41,36.24H13.58a1.16,1.16,0,1,1,0-2.32H122.41a1.16,1.16,0,0,1,0,2.32Z"/><path class="cls-1" d="M24.57,29.93a4.25,4.25,0,1,1,4.26-4.25A4.26,4.26,0,0,1,24.57,29.93Zm0-6.18a1.93,1.93,0,1,0,1.94,1.93A1.93,1.93,0,0,0,24.57,23.75Z"/><path class="cls-1" d="M38,29.93a4.25,4.25,0,1,1,4.25-4.25A4.26,4.26,0,0,1,38,29.93Zm0-6.18a1.93,1.93,0,1,0,1.93,1.93A1.93,1.93,0,0,0,38,23.75Z"/><path class="cls-1" d="M122.41,26.84H62a1.16,1.16,0,0,1,0-2.32h60.46a1.16,1.16,0,0,1,0,2.32Z"/><path class="cls-1" d="M127.78,119.43a1.16,1.16,0,0,1-1.16-1.16V68.81a1.16,1.16,0,0,1,2.32,0v49.46A1.16,1.16,0,0,1,127.78,119.43Z"/><path class="cls-1" d="M152.51,94.69h-30.1a1.16,1.16,0,0,1,0-2.32h30.1a1.16,1.16,0,0,1,0,2.32Z"/><path class="cls-1" d="M127.38,83.8c-1.7,0-3.39-.06-5.06-.19a1.16,1.16,0,0,1,.17-2.32,71.29,71.29,0,0,0,25.37-2.84,1.16,1.16,0,0,1,.65,2.23A76,76,0,0,1,127.38,83.8Z"/><path class="cls-1" d="M107.37,106.87a1.18,1.18,0,0,1-1.11-.81,1.16,1.16,0,0,1,.77-1.46c13.45-4.19,27-4.2,41.48,0a1.15,1.15,0,0,1,.79,1.43,1.16,1.16,0,0,1-1.44.8c-14-4.07-27.14-4.07-40.14,0A1.41,1.41,0,0,1,107.37,106.87Z"/></svg>